<?xml version="1.0" standalone="no"?><!DOCTYPE svg PUBLIC "-//W3C//DTD SVG 1.1//EN" "http://www.w3.org/Graphics/SVG/1.1/DTD/svg11.dtd"><svg t="1765873846480" class="icon" viewBox="0 0 1024 1024" version="1.1" xmlns="http://www.w3.org/2000/svg" p-id="1745" xmlns:xlink="http://www.w3.org/1999/xlink" width="48" height="48"><path d="M771.413333 654.487704c18.469926-18.583704 95.345778-111.274667 95.345778-243.029334 0-195.546074-159.061333-354.683259-354.607407-354.683259-195.697778 0-354.910815 159.137185-354.910815 354.683259 0 131.299556 75.662222 223.535407 95.269926 243.218963l-90.491259 174.193778a35.119407 35.119407 0 0 0 5.006222 40.353185 35.991704 35.991704 0 0 0 39.594666 9.633185l93.525334-36.408888 23.893333 97.469629a35.84 35.84 0 0 0 30.340741 26.737778c10.24 2.541037 28.216889-3.678815 36.067555-18.925037L485.451852 764.965926c36.712296 0 49.720889-0.113778 53.361778-0.303407l94.738963 182.309925c6.068148 12.515556 18.583704 20.024889 31.781926 20.024889a36.02963 36.02963 0 0 0 34.62637-27.117037l23.893333-97.469629 93.563259 36.408889a35.991704 35.991704 0 0 0 39.594667-9.59526 35.726222 35.726222 0 0 0 5.006222-40.353185l-90.567111-174.383407z m-259.261629 4.513185c-136.647111 0-247.845926-111.047111-247.845926-247.542519 0-136.533333 111.198815-247.580444 247.845926-247.580444 136.495407 0 247.542519 111.047111 247.542518 247.580444 0 136.495407-111.047111 247.542519-247.542518 247.542519z" p-id="1746" fill="#D4AF37"></path><path d="M629.342815 329.955556l-57.53363-8.419556-25.562074-52.224a38.456889 38.456889 0 0 0-34.247111-21.048889c-14.601481 0-27.799704 8.116148-34.247111 21.048889l-25.562074 52.224-57.53363 8.419556a37.281185 37.281185 0 0 0-30.606222 25.827555c-4.513185 13.767111-0.83437 28.899556 9.519407 39.025778l41.566815 40.429037-9.822815 57.268148c-2.541037 14.336 3.375407 28.634074 15.170371 37.357037 11.339852 8.343704 27.041185 9.860741 39.822222 2.806519l51.693037-26.965334 51.38963 26.927408a37.812148 37.812148 0 0 0 40.125629-3.034074c11.794963-8.457481 17.711407-22.755556 15.170371-37.357037l-9.860741-57.002667 41.566815-40.429037a37.850074 37.850074 0 0 0 9.557333-39.025778 37.69837 37.69837 0 0 0-30.606222-25.827555z" p-id="1747" fill="#D4AF37"></path></svg>